solid ASCII
  facet normal 0.000000e+00 -0.000000e+00 -1.000000e+00
    outer loop
      vertex   -3.105464e-03 4.453869e-02 3.050000e-02
      vertex   -2.642004e-03 4.502254e-02 3.050000e-02
      vertex   -3.107150e-03 4.443429e-02 3.050000e-02
    endloop
  endfacet
  facet normal 0.000000e+00 0.000000e+00 -1.000000e+00
    outer loop
      vertex   -3.107150e-03 4.443429e-02 3.050000e-02
      vertex   -2.642004e-03 4.502254e-02 3.050000e-02
      vertex   -1.251884e-08 4.510003e-02 3.050000e-02
    endloop
  endfacet
  facet normal 0.000000e+00 0.000000e+00 -1.000000e+00
    outer loop
      vertex   -3.107150e-03 4.443429e-02 3.050000e-02
      vertex   -1.251884e-08 4.510003e-02 3.050000e-02
      vertex   -2.941209e-03 4.206123e-02 3.050000e-02
    endloop
  endfacet
  facet normal 0.000000e+00 0.000000e+00 -1.000000e+00
    outer loop
      vertex   -2.941209e-03 4.206123e-02 3.050000e-02
      vertex   -1.251884e-08 4.510003e-02 3.050000e-02
      vertex   -1.907063e-09 4.158919e-02 3.050000e-02
    endloop
  endfacet
  facet normal 0.000000e+00 0.000000e+00 -1.000000e+00
    outer loop
      vertex   -2.941209e-03 4.206123e-02 3.050000e-02
      vertex   -1.907063e-09 4.158919e-02 3.050000e-02
      vertex   -2.407262e-03 4.151947e-02 3.050000e-02
    endloop
  endfacet
  facet normal 0.000000e+00 0.000000e+00 -1.000000e+00
    outer loop
      vertex   -3.105464e-03 4.453869e-02 3.050000e-02
      vertex   -3.085965e-03 4.464136e-02 3.050000e-02
      vertex   -2.642004e-03 4.502254e-02 3.050000e-02
    endloop
  endfacet
  facet normal 0.000000e+00 0.000000e+00 -1.000000e+00
    outer loop
      vertex   -2.642004e-03 4.502254e-02 3.050000e-02
      vertex   -3.085965e-03 4.464136e-02 3.050000e-02
      vertex   -3.048876e-03 4.473878e-02 3.050000e-02
    endloop
  endfacet
  facet normal 0.000000e+00 0.000000e+00 -1.000000e+00
    outer loop
      vertex   -2.642004e-03 4.502254e-02 3.050000e-02
      vertex   -3.048876e-03 4.473878e-02 3.050000e-02
      vertex   -2.994680e-03 4.482745e-02 3.050000e-02
    endloop
  endfacet
  facet normal 0.000000e+00 0.000000e+00 -1.000000e+00
    outer loop
      vertex   -2.994680e-03 4.482745e-02 3.050000e-02
      vertex   -2.924229e-03 4.490388e-02 3.050000e-02
      vertex   -2.642004e-03 4.502254e-02 3.050000e-02
    endloop
  endfacet
  facet normal 0.000000e+00 0.000000e+00 -1.000000e+00
    outer loop
      vertex   -2.642004e-03 4.502254e-02 3.050000e-02
      vertex   -2.924229e-03 4.490388e-02 3.050000e-02
      vertex   -2.839900e-03 4.496393e-02 3.050000e-02
    endloop
  endfacet
  facet normal 0.000000e+00 0.000000e+00 -1.000000e+00
    outer loop
      vertex   -2.642004e-03 4.502254e-02 3.050000e-02
      vertex   -2.839900e-03 4.496393e-02 3.050000e-02
      vertex   -2.744277e-03 4.500449e-02 3.050000e-02
    endloop
  endfacet
  facet normal 6.272904e-06 2.927872e-05 -1.000000e+00
    outer loop
      vertex   2.641981e-03 4.502257e-02 3.050001e-02
      vertex   3.107150e-03 4.443433e-02 3.050000e-02
      vertex   -1.251884e-08 4.510003e-02 3.050000e-02
    endloop
  endfacet
  facet normal 0.000000e+00 0.000000e+00 -1.000000e+00
    outer loop
      vertex   -1.251884e-08 4.510003e-02 3.050000e-02
      vertex   3.107150e-03 4.443433e-02 3.050000e-02
      vertex   2.941207e-03 4.206123e-02 3.050000e-02
    endloop
  endfacet
  facet normal 0.000000e+00 0.000000e+00 -1.000000e+00
    outer loop
      vertex   -1.251884e-08 4.510003e-02 3.050000e-02
      vertex   2.941207e-03 4.206123e-02 3.050000e-02
      vertex   -1.907063e-09 4.158919e-02 3.050000e-02
    endloop
  endfacet
  facet normal 0.000000e+00 0.000000e+00 -1.000000e+00
    outer loop
      vertex   -1.907063e-09 4.158919e-02 3.050000e-02
      vertex   2.941207e-03 4.206123e-02 3.050000e-02
      vertex   2.407258e-03 4.151947e-02 3.050000e-02
    endloop
  endfacet
  facet normal 0.000000e+00 0.000000e+00 -1.000000e+00
    outer loop
      vertex   2.407258e-03 4.151947e-02 3.050000e-02
      vertex   2.941207e-03 4.206123e-02 3.050000e-02
      vertex   2.925421e-03 4.195683e-02 3.050000e-02
    endloop
  endfacet
  facet normal 0.000000e+00 0.000000e+00 -1.000000e+00
    outer loop
      vertex   2.407258e-03 4.151947e-02 3.050000e-02
      vertex   2.925421e-03 4.195683e-02 3.050000e-02
      vertex   2.893101e-03 4.185618e-02 3.050000e-02
    endloop
  endfacet
  facet normal -2.404450e-04 -5.679697e-04 -9.999998e-01
    outer loop
      vertex   2.743962e-03 4.500459e-02 3.050000e-02
      vertex   2.839534e-03 4.496413e-02 3.050000e-02
      vertex   2.641981e-03 4.502257e-02 3.050001e-02
    endloop
  endfacet
  facet normal -1.240338e-04 -1.744884e-04 -1.000000e+00
    outer loop
      vertex   2.641981e-03 4.502257e-02 3.050001e-02
      vertex   2.839534e-03 4.496413e-02 3.050000e-02
      vertex   2.923988e-03 4.490409e-02 3.050000e-02
    endloop
  endfacet
  facet normal -8.284151e-05 -7.644184e-05 -1.000000e+00
    outer loop
      vertex   2.641981e-03 4.502257e-02 3.050001e-02
      vertex   2.923988e-03 4.490409e-02 3.050000e-02
      vertex   2.994547e-03 4.482763e-02 3.050000e-02
    endloop
  endfacet
  facet normal -6.130772e-05 -3.749718e-05 -1.000000e+00
    outer loop
      vertex   2.994547e-03 4.482763e-02 3.050000e-02
      vertex   3.048804e-03 4.473892e-02 3.050000e-02
      vertex   2.641981e-03 4.502257e-02 3.050001e-02
    endloop
  endfacet
  facet normal -4.787961e-05 -1.823840e-05 -1.000000e+00
    outer loop
      vertex   2.641981e-03 4.502257e-02 3.050001e-02
      vertex   3.048804e-03 4.473892e-02 3.050000e-02
      vertex   3.085954e-03 4.464139e-02 3.050000e-02
    endloop
  endfacet
  facet normal -3.850327e-05 -7.317555e-06 -1.000000e+00
    outer loop
      vertex   2.641981e-03 4.502257e-02 3.050001e-02
      vertex   3.085954e-03 4.464139e-02 3.050000e-02
      vertex   3.105455e-03 4.453878e-02 3.050000e-02
    endloop
  endfacet
  facet normal -3.139673e-05 -5.094301e-07 -1.000000e+00
    outer loop
      vertex   3.105455e-03 4.453878e-02 3.050000e-02
      vertex   3.107150e-03 4.443433e-02 3.050000e-02
      vertex   2.641981e-03 4.502257e-02 3.050001e-02
    endloop
  endfacet
  facet normal 0.000000e+00 0.000000e+00 -1.000000e+00
    outer loop
      vertex   2.893101e-03 4.185618e-02 3.050000e-02
      vertex   2.844748e-03 4.176252e-02 3.050000e-02
      vertex   2.407258e-03 4.151947e-02 3.050000e-02
    endloop
  endfacet
  facet normal 0.000000e+00 0.000000e+00 -1.000000e+00
    outer loop
      vertex   2.407258e-03 4.151947e-02 3.050000e-02
      vertex   2.844748e-03 4.176252e-02 3.050000e-02
      vertex   2.780962e-03 4.167908e-02 3.050000e-02
    endloop
  endfacet
  facet normal 0.000000e+00 0.000000e+00 -1.000000e+00
    outer loop
      vertex   2.407258e-03 4.151947e-02 3.050000e-02
      vertex   2.780962e-03 4.167908e-02 3.050000e-02
      vertex   2.702557e-03 4.160922e-02 3.050000e-02
    endloop
  endfacet
  facet normal 0.000000e+00 0.000000e+00 -1.000000e+00
    outer loop
      vertex   2.702557e-03 4.160922e-02 3.050000e-02
      vertex   2.611919e-03 4.155712e-02 3.050000e-02
      vertex   2.407258e-03 4.151947e-02 3.050000e-02
    endloop
  endfacet
  facet normal 0.000000e+00 0.000000e+00 -1.000000e+00
    outer loop
      vertex   2.407258e-03 4.151947e-02 3.050000e-02
      vertex   2.611919e-03 4.155712e-02 3.050000e-02
      vertex   2.511810e-03 4.152617e-02 3.050000e-02
    endloop
  endfacet
  facet normal 0.000000e+00 0.000000e+00 -1.000000e+00
    outer loop
      vertex   -2.511477e-03 4.152610e-02 3.050000e-02
      vertex   -2.611560e-03 4.155696e-02 3.050000e-02
      vertex   -2.407262e-03 4.151947e-02 3.050000e-02
    endloop
  endfacet
  facet normal 0.000000e+00 0.000000e+00 -1.000000e+00
    outer loop
      vertex   -2.407262e-03 4.151947e-02 3.050000e-02
      vertex   -2.611560e-03 4.155696e-02 3.050000e-02
      vertex   -2.702332e-03 4.160905e-02 3.050000e-02
    endloop
  endfacet
  facet normal 0.000000e+00 0.000000e+00 -1.000000e+00
    outer loop
      vertex   -2.407262e-03 4.151947e-02 3.050000e-02
      vertex   -2.702332e-03 4.160905e-02 3.050000e-02
      vertex   -2.780852e-03 4.167895e-02 3.050000e-02
    endloop
  endfacet
  facet normal 0.000000e+00 0.000000e+00 -1.000000e+00
    outer loop
      vertex   -2.780852e-03 4.167895e-02 3.050000e-02
      vertex   -2.844738e-03 4.176250e-02 3.050000e-02
      vertex   -2.407262e-03 4.151947e-02 3.050000e-02
    endloop
  endfacet
  facet normal 0.000000e+00 0.000000e+00 -1.000000e+00
    outer loop
      vertex   -2.407262e-03 4.151947e-02 3.050000e-02
      vertex   -2.844738e-03 4.176250e-02 3.050000e-02
      vertex   -2.893139e-03 4.185627e-02 3.050000e-02
    endloop
  endfacet
  facet normal 0.000000e+00 0.000000e+00 -1.000000e+00
    outer loop
      vertex   -2.407262e-03 4.151947e-02 3.050000e-02
      vertex   -2.893139e-03 4.185627e-02 3.050000e-02
      vertex   -2.925417e-03 4.195680e-02 3.050000e-02
    endloop
  endfacet
  facet normal 0.000000e+00 0.000000e+00 -1.000000e+00
    outer loop
      vertex   -2.925417e-03 4.195680e-02 3.050000e-02
      vertex   -2.941209e-03 4.206123e-02 3.050000e-02
      vertex   -2.407262e-03 4.151947e-02 3.050000e-02
    endloop
  endfacet
endsolid
